<?xml version="1.0" encoding="UTF-8"?>
<svg width="83px" height="83px" viewBox="0 0 83 83" version="1.1" xmlns="http://www.w3.org/2000/svg" xmlns:xlink="http://www.w3.org/1999/xlink">
    <!-- Generator: Sketch 50.2 (55047) - http://www.bohemiancoding.com/sketch -->
    <title>logo</title>
    <desc>Created with Sketch.</desc>
    <defs>
        <linearGradient x1="50%" y1="-2.48949813e-15%" x2="50%" y2="100%" id="linearGradient-1">
            <stop stop-color="#3095F3" offset="0%"></stop>
            <stop stop-color="#268AED" offset="100%"></stop>
        </linearGradient>
    </defs>
    <g id="其他页面" stroke="none" stroke-width="1" fill="none" fill-rule="evenodd">
        <g id="H5-下载页" transform="translate(-146.000000, -196.000000)">
            <g id="Group-7" transform="translate(88.000000, 52.000000)">
                <g id="logo" transform="translate(58.000000, 144.000000)">
                    <path d="M63.2226562,1.41478013e-15 C75.21875,1.41478013e-15 83,7.78125 83,19.7773438 L83,63.2226562 C83,75.21875 75.21875,83 63.2226562,83 L19.7773437,83 C7.78125,83 0,75.21875 0,63.2226562 L0,19.7773438 C0,7.78125 7.78125,1.41478013e-15 19.7773437,1.41478013e-15 L63.2226562,1.41478013e-15 Z" id="Mask" fill="url(#linearGradient-1)"></path>
                    <g id="矩形" transform="translate(12.000000, 15.000000)" fill="#FFFFFF">
                        <path d="M32.9289836,3.92203814 L44.2729575,15.2660121 L44.290411,7.82445141 L49.139726,7.82445141 L49.1026272,20.0956817 L58.3114557,29.3045103 C59.2583434,30.251398 59.2583434,31.7866062 58.3114557,32.7334939 C57.3645681,33.6803816 55.8293598,33.6803816 54.8824722,32.7334939 L49.0819564,26.9329781 L49.0589041,34.5579937 C48.045528,44.3645971 39.8111338,52 29.8083351,52 C19.8610285,52 11.6625598,44.4490792 10.5416771,34.7210031 L10.519817,26.3312047 L4.11752782,32.7334939 C3.17064016,33.6803816 1.63543192,33.6803816 0.688544255,32.7334939 C-0.258343412,31.7866062 -0.258343412,30.251398 0.688544255,29.3045103 L26.0710164,3.92203814 L25.968573,3.81959473 L29.3975566,0.390611162 L29.5,0.493054575 L29.6024434,0.390611162 L33.031427,3.81959473 L32.9289836,3.92203814 Z M29.5,7.35102171 L15.3561644,21.4948573 L15.3561644,34.3949843 C16.3368949,41.5726655 22.431408,47.1097179 29.8083351,47.1097179 C37.1852623,47.1097179 43.2797754,41.5726655 44.2280923,34.3949843 L44.2569104,22.1079321 L29.5,7.35102171 Z M46.720155,0 C48.0528198,0 49.139726,1.0951857 49.139726,2.44514107 C49.139726,3.7907783 48.0528198,4.89028213 46.720155,4.89028213 C45.3751755,4.89028213 44.290411,3.7907783 44.290411,2.44514107 C44.290411,1.0951857 45.3751755,0 46.720155,0 Z" id="Combined-Shape"></path>
                        <g id="heard" stroke-width="1" transform="translate(18.265753, 23.147335)">
                            <rect id="Rectangle-30" opacity="0.65" transform="translate(7.900342, 7.967085) scale(1, -1) rotate(45.000000) translate(-7.900342, -7.967085) " x="4.36438356" y="0.326018809" width="7.07191781" height="15.2821317" rx="3.5359589"></rect>
                            <rect id="Rectangle-30" transform="translate(13.677265, 7.924473) scale(-1, -1) rotate(45.000000) translate(-13.677265, -7.924473) " x="10.1413065" y="0.283406717" width="7.07191781" height="15.2821317" rx="3.5359589"></rect>
                        </g>
                    </g>
                </g>
            </g>
        </g>
    </g>
</svg>