<?xml version="1.0" standalone="no"?><!DOCTYPE svg PUBLIC "-//W3C//DTD SVG 1.1//EN" "http://www.w3.org/Graphics/SVG/1.1/DTD/svg11.dtd"><svg t="1558420975170" class="icon" style="" viewBox="0 0 1024 1024" version="1.1" xmlns="http://www.w3.org/2000/svg" p-id="2366" xmlns:xlink="http://www.w3.org/1999/xlink" width="200" height="200"><defs><style type="text/css"></style></defs><path d="M320.426667 709.162667l179.584-66.304L941.184 146.688c20.096-23.381333 17.450667-58.581333-5.930667-78.677333l-63.445333-54.570667C861.269333 4.437333 848.341333 0 835.456 0c-15.701333 0-31.274667 6.570667-42.325333 19.413333L351.914667 515.541333 320.426667 709.162667 320.426667 709.162667zM404.394667 540.501333 835.370667 55.808l0.042667 0 64.085333 53.845333L467.541333 595.328 390.826667 623.701333 404.394667 540.501333 404.394667 540.501333zM902.485333 354.56l0 557.866667c0 30.762667-25.002667 55.808-55.765333 55.808L177.28 968.234667c-30.762667 0-55.808-25.002667-55.808-55.808L121.472 242.986667c0-30.762667 25.002667-55.808 55.808-55.808l306.816 0L484.096 131.413333 177.28 131.413333c-61.610667 0-111.573333 49.962667-111.573333 111.573333l0 669.44C65.706667 974.037333 115.669333 1024 177.28 1024l669.44 0c61.610667 0 111.573333-49.962667 111.573333-111.573333L958.293333 354.56 902.485333 354.56 902.485333 354.56zM902.485333 354.56" p-id="2367" fill="#8a8a8a"></path></svg>