<?xml version="1.0" encoding="UTF-8"?>
<svg width="24px" height="24px" viewBox="0 0 24 24" version="1.1" xmlns="http://www.w3.org/2000/svg" xmlns:xlink="http://www.w3.org/1999/xlink">
    <!-- Generator: Sketch 53.2 (72643) - https://sketchapp.com -->
    <title>vip_ic_month</title>
    <desc>Created with Sketch.</desc>
    <g id="预约专家" stroke="none" stroke-width="1" fill="none" fill-rule="evenodd">
        <g id="H5-专家预约" transform="translate(-12.000000, -403.000000)" fill="#BB9B6D">
            <g id="vip_ic_month" transform="translate(12.000000, 403.000000)">
                <path d="M12,0 L12,0 C18.627417,-1.21743675e-15 24,5.372583 24,12 L24,12 C24,18.627417 18.627417,24 12,24 L12,24 C5.372583,24 8.11624501e-16,18.627417 0,12 L0,12 C-8.11624501e-16,5.372583 5.372583,1.21743675e-15 12,0 Z M14.585,8.97 L14.585,7.45 L9.75,7.45 L9.75,8.97 L14.585,8.97 L14.585,8.97 Z M8.16118699,17.7753952 L7.93889244,17.7978028 L6.89889244,16.8488028 L6.87784518,16.6509471 C7.6586015,15.5553697 8.05923256,14.1340834 8.085,12.383 L8.085,6 L8.235,5.85 L16.113,5.85 L16.263,6 L16.263,16.192 C16.263,17.1338614 15.7528572,17.629 14.787,17.629 L13.123,17.629 L12.9783511,17.5187075 L12.5584248,15.9889762 L12.7692036,16.0033474 C13.3997185,16.0463371 13.9041546,16.068 14.345,16.068 C14.5083289,16.068 14.585,15.964494 14.585,15.698 L14.585,13.716 L9.65550477,13.716 C9.45880932,15.3227304 8.96024882,16.6799072 8.16118699,17.7753952 Z M9.75,12.155 L14.585,12.155 L14.585,10.531 L9.75,10.531 L9.75,12.155 Z" id="合并形状"></path>
            </g>
        </g>
    </g>
</svg>