<?xml version="1.0" standalone="no"?><!DOCTYPE svg PUBLIC "-//W3C//DTD SVG 1.1//EN" "http://www.w3.org/Graphics/SVG/1.1/DTD/svg11.dtd"><svg t="1558421513021" class="icon" style="" viewBox="0 0 1024 1024" version="1.1" xmlns="http://www.w3.org/2000/svg" p-id="5978" xmlns:xlink="http://www.w3.org/1999/xlink" width="200" height="200"><defs><style type="text/css"></style></defs><path d="M161.12861 335.643074l175.499908 0 0-175.494791-175.499908 0L161.12861 335.643074zM424.339074 862.060933l175.498884 0 0-175.494791-175.498884 0L424.339074 862.060933zM161.12861 862.060933l175.499908 0 0-175.494791-175.499908 0L161.12861 862.060933zM161.12861 598.854562l175.499908 0 0-175.498884-175.499908 0L161.12861 598.854562zM424.339074 598.854562l175.498884 0 0-175.498884-175.498884 0L424.339074 598.854562zM687.550561 335.643074l175.498884 0 0-175.494791-175.498884 0L687.550561 335.643074zM424.339074 335.643074l175.498884 0 0-175.494791-175.498884 0L424.339074 335.643074zM687.550561 598.854562l175.498884 0 0-175.498884-175.498884 0L687.550561 598.854562zM687.550561 862.060933l175.498884 0 0-175.494791-175.498884 0L687.550561 862.060933z" p-id="5979" fill="#8a8a8a"></path></svg>