<?xml version="1.0" encoding="UTF-8"?>
<svg width="14px" height="14px" viewBox="0 0 14 14" version="1.1" xmlns="http://www.w3.org/2000/svg" xmlns:xlink="http://www.w3.org/1999/xlink">
    <!-- Generator: Sketch 50.2 (55047) - http://www.bohemiancoding.com/sketch -->
    <title>vipc_ic_ser</title>
    <desc>Created with Sketch.</desc>
    <defs></defs>
    <g id="预约企业" stroke="none" stroke-width="1" fill="none" fill-rule="evenodd">
        <g id="H5-预约企业-服务中" transform="translate(-27.000000, -122.000000)" fill="#268AED">
            <g id="Group-Copy-2" transform="translate(12.000000, 110.000000)">
                <g id="Group" transform="translate(15.000000, 12.000000)">
                    <path d="M12.9548495,6.99894823 C12.9128101,6.52222643 12.4952807,6.14515624 11.9870162,6.14515624 C11.4498614,6.14515624 11.0160183,6.56269329 11.0160183,7.08004143 C11.0160183,7.13606222 11.0224838,7.18915834 11.0322502,7.24209493 C11.200626,8.68172562 10.6308983,10.1713948 9.38161116,11.1499906 C7.42993082,12.6799937 4.54923744,12.3933225 2.96017065,10.5142198 C1.37094016,8.63501064 1.66868049,5.86151609 3.62044265,4.33135345 C4.78235005,3.42138114 6.27440709,3.15342786 7.62736043,3.48378302 L7.18385994,3.70180416 C6.70825022,3.93553877 6.51714974,4.49962854 6.7567551,4.95779194 C6.99949774,5.41576924 7.58532102,5.5997578 8.06103988,5.36905421 L10.543464,4.15677702 C11.0193738,3.92306901 11.2102833,3.35916535 10.9708689,2.90097534 L9.7117608,0.510825746 C9.46901815,0.052688914 8.88311303,-0.131140118 8.40747602,0.0995368787 C7.93162076,0.333271485 7.74068396,0.897175136 7.98012566,1.35533853 L8.15174782,1.68250315 C6.21288935,1.19631605 4.06708037,1.57035522 2.39693569,2.87925299 C-0.386611518,5.06068726 -0.807278158,9.0121074 1.45837444,11.6921719 C3.72399975,14.3722098 7.82809095,14.7772772 10.6114745,12.5958695 C12.39808,11.1967056 13.2072494,9.05895536 12.9548495,6.99894823" id="vipc_ic_con"></path>
                </g>
            </g>
        </g>
    </g>
</svg>