<?xml version="1.0" encoding="UTF-8"?>
<svg width="16px" height="16px" viewBox="0 0 16 16" version="1.1" xmlns="http://www.w3.org/2000/svg" xmlns:xlink="http://www.w3.org/1999/xlink">
    <!-- Generator: Sketch 50.2 (55047) - http://www.bohemiancoding.com/sketch -->
    <title>vipc_ic_call</title>
    <desc>Created with Sketch.</desc>
    <defs></defs>
    <g id="预约企业" stroke="none" stroke-width="1" fill="none" fill-rule="evenodd">
        <g id="H5-预约详情-未联系" transform="translate(-98.000000, -355.000000)">
            <g id="3" transform="translate(98.000000, 355.000000)">
                <g>
                    <rect id="Rectangle-9-Copy" stroke="#268AED" x="0.5" y="0.5" width="15" height="15" rx="4"></rect>
                    <path d="M11.999997,5.95678526 C12.0005725,6.05976089 11.9175804,6.14379109 11.8145371,6.14446812 C11.814176,6.14446812 11.8138036,6.14446812 11.8134425,6.14446812 C11.7109183,6.14446812 11.6275538,6.06165657 11.6268994,5.9589856 L11.6190459,4.64483328 L9.10277772,7.16134967 C9.06633116,7.19779623 9.01860084,7.2160308 8.97089308,7.2160308 C8.92315147,7.2160308 8.87542115,7.19779623 8.83900845,7.16134967 C8.76612661,7.08854682 8.76612661,6.97043966 8.83900845,6.89754655 L11.3551073,4.38106401 L10.041192,4.37315408 C9.93814864,4.37247706 9.85515656,4.28844686 9.85574331,4.1854938 C9.85639778,4.08280026 9.93975094,4 10.0422752,4 C10.0426363,4 10.0430087,4 10.043381,4 L11.9883183,4.01175768 L11.999997,5.95678526 Z M10.1306835,8.92684127 C10.0607129,8.85685937 9.93683972,8.85685937 9.86688038,8.92684127 L9.36176267,9.43213952 C9.28691746,9.50690574 9.18679662,9.54817047 9.07989424,9.54817047 C8.97299185,9.54817047 8.87288229,9.50690574 8.79803708,9.43213952 L6.56829758,7.20216304 C6.49345238,7.12731784 6.45227792,7.02725342 6.45227792,6.92036232 C6.45227792,6.81336967 6.49352008,6.71324883 6.56836529,6.63839233 L7.07348299,6.13321819 C7.14636483,6.06033636 7.14636483,5.94230818 7.07348299,5.86941507 L5.72556964,4.5213889 C5.65268781,4.44849578 5.53462579,4.44849578 5.46176652,4.5213889 L4.34847649,5.63475792 C4.12373775,5.85934997 4,6.15808762 4,6.47589484 C4,6.79370206 4.12373776,7.09248486 4.34847649,7.31715589 L8.68310067,11.6520847 C8.90783941,11.876846 9.20661091,12.0005838 9.52438428,12.0005838 C9.84202224,12.0005838 10.1407825,11.8769025 10.3654422,11.6522089 L11.4787548,10.538806 C11.5516254,10.465958 11.5516254,10.3479073 11.4787548,10.2750141 L10.1306835,8.92684127 Z" id="Shape" fill="#268AED" fill-rule="nonzero"></path>
                </g>
            </g>
        </g>
    </g>
</svg>