<?xml version="1.0" encoding="UTF-8"?>
<svg width="24px" height="24px" viewBox="0 0 24 24" version="1.1" xmlns="http://www.w3.org/2000/svg" xmlns:xlink="http://www.w3.org/1999/xlink">
    <!-- Generator: Sketch 53.2 (72643) - https://sketchapp.com -->
    <title>vip_ic_week</title>
    <desc>Created with Sketch.</desc>
    <g id="预约专家" stroke="none" stroke-width="1" fill="none" fill-rule="evenodd">
        <g id="H5-专家预约" transform="translate(-12.000000, -356.000000)" fill="#BB9B6D">
            <g id="vip_ic_week" transform="translate(12.000000, 356.000000)">
                <path d="M12,0 C18.627417,-1.21743675e-15 24,5.372583 24,12 C24,18.627417 18.627417,24 12,24 C5.372583,24 8.11624501e-16,18.627417 0,12 C-8.11624501e-16,5.372583 5.372583,1.21743675e-15 12,0 Z M16,6 L16,5 C16,4.44771525 15.5522847,4 15,4 C14.4477153,4 14,4.44771525 14,5 L14,6 L10,6 L10,5 C10,4.44771525 9.55228475,4 9,4 C8.44771525,4 8,4.44771525 8,5 L8,6 L6,6 C5.44771525,6 5,6.44771525 5,7 L5,17 C5,17.5522847 5.44771525,18 6,18 L18,18 C18.5522847,18 19,17.5522847 19,17 L19,7 C19,6.44771525 18.5522847,6 18,6 L16,6 Z M8.75,10.2892157 L8.75,8.75 L14.25,8.75 L14.25,9 L14.2300192,10.0195031 L11.5772831,16.25 L9.74362282,16.25 L12.3937263,10.2892157 L8.75,10.2892157 Z" id="合并形状"></path>
            </g>
        </g>
    </g>
</svg>