<?xml version="1.0" encoding="UTF-8"?>
<svg width="16px" height="16px" viewBox="0 0 16 16" version="1.1" xmlns="http://www.w3.org/2000/svg" xmlns:xlink="http://www.w3.org/1999/xlink">
    <!-- Generator: Sketch 50.2 (55047) - http://www.bohemiancoding.com/sketch -->
    <title>mycoin_ic_mcoin</title>
    <desc>Created with Sketch.</desc>
    <defs></defs>
    <g id="积分" stroke="none" stroke-width="1" fill="none" fill-rule="evenodd">
        <g transform="translate(-193.000000, -255.000000)" id="Group-17">
            <g transform="translate(0.000000, 237.000000)">
                <g id="Rectangle-36-Copy">
                    <g id="Group" transform="translate(193.000000, 16.000000)">
                        <g id="mycoin_ic_mcoin" transform="translate(0.000000, 2.000000)">
                            <circle id="Oval-9" fill="#FFB829" cx="8" cy="8" r="8"></circle>
                            <path d="M12.3512015,7.02784381 C12.3053168,6.88663073 12.1829575,6.78307447 12.0358911,6.76189251 L9.6169428,6.41003658 L8.53453403,4.2177035 C8.46864828,4.08472785 8.33334718,4 8.18510424,4 C8.0368613,4 7.9015602,4.08472785 7.83567445,4.2177035 L6.75326568,6.41003658 L4.33431737,6.76189251 C4.18725096,6.78307448 4.06489171,6.88545396 4.01900699,7.02784381 C3.97312227,7.16905689 4.0119478,7.32439128 4.11783561,7.42794754 L5.86851416,9.13427226 L5.4567282,11.5443088 C5.43202103,11.690229 5.49202413,11.8385028 5.61203032,11.9255842 C5.73203651,12.0126656 5.89086823,12.0244333 6.02263974,11.9550035 L8.18628076,10.8170615 L10.3499218,11.9550035 C10.4063953,11.9844229 10.4687514,11.999721 10.5311076,11.999721 C10.6122883,11.999721 10.6922924,11.9750087 10.7605312,11.9255842 C10.8805374,11.8385028 10.9405405,11.690229 10.9158333,11.5443088 L10.5028708,9.13427226 L12.2535494,7.42794754 C12.3582607,7.32439128 12.3970862,7.16905689 12.3512015,7.02784381 Z" id="Shape" fill="#FFEDAE" fill-rule="nonzero"></path>
                        </g>
                    </g>
                </g>
            </g>
        </g>
    </g>
</svg>