<?xml version="1.0" standalone="no"?><!DOCTYPE svg PUBLIC "-//W3C//DTD SVG 1.1//EN" "http://www.w3.org/Graphics/SVG/1.1/DTD/svg11.dtd"><svg t="1558436746328" class="icon" style="" viewBox="0 0 1024 1024" version="1.1" xmlns="http://www.w3.org/2000/svg" p-id="25861" xmlns:xlink="http://www.w3.org/1999/xlink" width="200" height="200"><defs><style type="text/css"></style></defs><path d="M89.216226 575.029277c-6.501587-7.223986-10.47478-15.892769-12.641975-26.367549-1.805996-10.47478-0.722399-20.22716 3.973192-29.257143l4.695591-10.47478c5.05679-8.307584 11.558377-13.725573 19.865961-15.892769 7.946384-2.167196 15.892769-0.361199 23.477954 5.417989L323.995767 639.322751c8.307584 5.779189 17.698765 8.668783 27.812346 8.307584 10.11358-0.361199 18.782363-3.611993 26.006349-10.11358L898.302646 208.411993c7.585185-5.779189 16.253968-8.307584 26.006349-7.585185 9.752381 0.722399 18.059965 4.334392 24.922751 10.47478l-12.641975-12.641975c6.501587 7.223986 9.752381 15.17037 9.752381 24.561552 0 9.391182-3.250794 17.337566-9.752381 24.561552L376.008466 816.310406c-7.223986 7.223986-15.17037 10.47478-24.200353 10.47478-9.029982 0-16.976367-3.250794-24.200353-9.752381L89.216226 575.029277z" p-id="25862" fill="#0cedb8"></path></svg>