<?xml version="1.0" encoding="UTF-8"?>
<svg width="18px" height="18px" viewBox="0 0 18 18" version="1.1" xmlns="http://www.w3.org/2000/svg" xmlns:xlink="http://www.w3.org/1999/xlink">
    <!-- Generator: Sketch 50.2 (55047) - http://www.bohemiancoding.com/sketch -->
    <title>mycoin_ic_q</title>
    <desc>Created with Sketch.</desc>
    <defs></defs>
    <g id="积分" stroke="none" stroke-width="1" fill="none" fill-rule="evenodd">
        <g transform="translate(-287.000000, -106.000000)" fill="#FFFFFF" fill-rule="nonzero" id="mycoin_ic_q" stroke="#FFFFFF" stroke-width="0.5">
            <g transform="translate(288.000000, 107.000000)">
                <path d="M7.99982602,0.0104281163 C3.59443562,0.0104281163 0.0104189709,3.59442643 0.010418953,7.99983517 C0.010418953,12.4055552 3.59441727,15.9895536 7.99982602,15.9895536 C12.4053996,15.9895536 15.9895444,12.4055736 15.9895444,7.99983517 C15.9893979,3.59442643 12.4053996,0.0104281163 7.99982602,0.0104281163 Z M7.99982602,15.1808166 C4.04011179,15.1808166 0.818826291,11.9598791 0.818826273,7.99983517 C0.818826273,4.04012093 4.04011177,0.818670604 7.99982602,0.818670604 C11.959522,0.818670604 15.1808258,4.04012093 15.1808258,7.99983517 C15.1808258,11.9596959 11.9598882,15.1808166 7.99982602,15.1808166 Z" id="Shape"></path>
                <path d="M8.07183748,2.74198398 C7.71568113,2.74198398 7.37674015,2.79696322 7.05602178,2.90807551 C6.7351386,3.01852848 6.44306366,3.19137795 6.18269061,3.42356544 C5.92116376,3.65846343 5.73163007,3.96689296 5.61256941,4.26383948 C5.4936919,4.56062117 5.4262407,4.74526498 5.41056372,5.60865154 L6.31305111,5.60865154 C6.31305111,4.39993233 6.89110237,3.60516909 8.0484136,3.60516909 C8.57014867,3.60516909 8.96641312,3.72085992 9.23519239,3.99775239 C9.50499726,4.27565213 9.64006452,4.58323921 9.64006452,4.94342468 C9.64006452,5.30410463 9.55878608,5.56548496 9.3957164,5.74001933 C9.23400197,5.91404089 8.96641312,6.19025575 8.59371905,6.57439619 C8.22192238,6.95868315 7.98431388,7.24872521 7.88179096,7.44600583 C7.77772965,7.6440007 7.69123166,7.89120583 7.61973301,8.15560802 C7.54823436,8.42204308 7.51349231,8.71646223 7.5134923,9.23447952 L8.43911053,9.23447952 C8.43167497,8.71646223 8.46117915,8.53551789 8.52797106,8.30937409 C8.59593507,8.08476868 8.69422742,7.88292782 8.82524723,7.72037094 C8.9559557,7.55847336 9.22099889,7.28057362 9.6213474,6.8964698 C10.0208351,6.51284215 10.2826917,6.18992609 10.4054518,5.93343565 C10.5279005,5.6757731 10.5892714,5.38743426 10.5892714,5.07058021 C10.5892714,4.36603275 10.3497949,3.8011494 9.87058541,3.37721219 C9.39166896,2.95378778 8.79187875,2.741984 8.07183748,2.74198398 Z M7.55566992,10.9254928 L8.41905648,10.9254928 L8.41905648,12.3069149 L7.55566992,12.3069149 L7.55566992,10.9254928 Z" id="Shape"></path>
            </g>
        </g>
    </g>
</svg>