<?xml version="1.0" standalone="no"?><!DOCTYPE svg PUBLIC "-//W3C//DTD SVG 1.1//EN" "http://www.w3.org/Graphics/SVG/1.1/DTD/svg11.dtd"><svg t="1558514275296" class="icon" style="" viewBox="0 0 1024 1024" version="1.1" xmlns="http://www.w3.org/2000/svg" p-id="4789" xmlns:xlink="http://www.w3.org/1999/xlink" width="200" height="200"><defs><style type="text/css"></style></defs><path d="M796.059711 128.365195a482.807533 482.807533 0 0 1 34.969965 28.562639 17.254917 17.254917 0 1 0 23.064073-25.663813c-11.963409-10.755565-24.571002-21.050999-37.47768-30.621726a17.256067 17.256067 0 1 0-20.556358 27.7229z" fill="#8a8a8a" p-id="4790"></path><path d="M942.427421 234.839536a17.254917 17.254917 0 1 0-28.988261 18.715833 475.626037 475.626037 0 0 1 76.013661 258.559181c0 263.229511-214.145024 477.386038-477.386038 477.386038s-477.386038-214.156527-477.386038-477.386038 214.145024-477.386038 477.386038-477.386039a475.683553 475.683553 0 0 1 166.659492 29.908523 17.254917 17.254917 0 0 0 12.055436-32.335714 511.964892 511.964892 0 1 0 251.64571 202.538216z" fill="#8a8a8a" p-id="4791"></path><path d="M239.49661 786.295181c-24.835577-24.835577 5.291508-96.627535 38.087354-138.821559 5.291508 13.19426 17.473479 38.581995 39.801342 60.967374s47.738604 34.509834 60.967373 39.801342c-42.194024 32.772839-113.997485 62.888421-138.856069 38.052843zM616.355502 409.171715a54.433512 54.433512 0 1 1 38.489968 15.943543 54.065407 54.065407 0 0 1-38.489968-15.943543zM797.417098 325.922491l-0.310588-0.540654a262.654347 262.654347 0 0 0-97.053157-97.06466l-0.494641-0.287582-0.126536-0.115032a1.426406 1.426406 0 0 1 0-2.024577 1.610459 1.610459 0 0 1 0.368105-0.276079h0.080523l0.207059-0.092026a75.65706 75.65706 0 0 1 99.928976 99.710414l-0.230066 0.517647a1.43791 1.43791 0 0 1-2.300655 0.287582z" fill="#8a8a8a" p-id="4792"></path><path d="M338.091206 687.389997a158.653211 158.653211 0 0 1-32.910878-47.79612l-0.092026-0.230066a159.642492 159.642492 0 0 1-5.901182-15.402889 62.554826 62.554826 0 0 1 7.603667-47.324486l172.54917-230.755757a264.264806 264.264806 0 0 1 25.134663-29.103294 259.237874 259.237874 0 0 1 134.450313-71.515879c0.862746-0.172549 1.679479-0.322092 2.450199-0.460131a74.25366 74.25366 0 0 1 49.06148 8.661968c2.13961 1.322877 6.556868 4.187193 6.556869 4.187193a252.393423 252.393423 0 0 1 68.778099 67.788818s7.362098 11.273212 10.640532 17.001845a74.587255 74.587255 0 0 1 6.372816 35.959247c-0.920262 5.751639-2.00157 11.503278-3.232421 16.909819l-0.080523 0.368104a259.571469 259.571469 0 0 1-69.801891 126.29449 264.299316 264.299316 0 0 1-29.068783 25.111656l-227.764905 170.248515a62.209728 62.209728 0 0 1-50.338345 9.283145c-4.348239-1.391897-13.010207-4.77386-13.803934-5.107455a158.572688 158.572688 0 0 1-50.556907-34.10722z m372.591176-372.614182a79.073533 79.073533 0 1 0 0 111.823366 78.555886 78.555886 0 0 0 0-111.823366zM547.335834 679.441232c-13.205763 23.006556-27.607867 45.495465-43.033763 67.064111-0.494641 0.7017-2.438695 3.174905-2.898827 3.669545a19.118448 19.118448 0 0 1-21.223547 3.842095h-0.092027l-1.564446-0.862746-1.081308-0.59817c-5.245495-2.933336-10.525499-5.947195-15.759491-9.01857zM283.761224 564.212896c-3.082879-5.256998-6.096737-10.548506-9.030073-15.782498l-0.609674-1.150327-0.874249-1.57595a19.129951 19.129951 0 0 1 3.888108-21.350084c0.448628-0.414118 2.921833-2.358172 3.600526-2.829806a806.011685 806.011685 0 0 1 67.087118-43.045266z" fill="#8a8a8a" p-id="4793"></path><path d="M425.009975 824.693124c11.503278-12.435044 25.801853-30.403164 42.677162-53.58227l0.517647 0.287582 2.047584 1.150328 0.552157 0.276079 0.506144 0.241569a39.594283 39.594283 0 0 0 16.63374 3.623532 40.422519 40.422519 0 0 0 28.401594-11.72184 73.206861 73.206861 0 0 0 5.107455-6.349809 824.785035 824.785035 0 0 0 56.239526-90.645831l15.851518-29.701464 98.387536-73.55196 1.150328-0.839739a284.890184 284.890184 0 0 0 31.403949-27.067213 280.80652 280.80652 0 0 0 69.019668-113.192256c6.901967 53.467236 1.529936 114.33108-15.598445 174.067603-19.33701 67.558752-51.40815 126.167953-90.231712 165.03753-45.230889 45.184876-101.401396 69.744375-166.993088 72.965292-42.527619 2.17412-78.509873-5.751639-95.672763-10.997133zM201.087165 600.781817c-5.303011-17.162891-13.171253-53.133641-11.05465-95.66126 3.266931-65.568685 27.837933-121.762198 73.022809-166.947074 39.111145-39.111145 97.996426-71.228298 165.957792-90.576812 60.162144-17.128381 121.34808-22.316359 174.964859-15.0923a280.7375 280.7375 0 0 0-114.388597 69.433786 285.338812 285.338812 0 0 0-27.12473 31.403949l-74.414705 99.537865-28.815712 15.379882a823.853269 823.853269 0 0 0-90.611321 56.21652 71.699932 71.699932 0 0 0-6.326803 5.141965 40.18095 40.18095 0 0 0-8.052294 45.12736l1.058301 2.300656 0.333595 0.356601c-23.61623 17.162891-41.894939 31.714538-54.548544 43.378862z" fill="#8a8a8a" p-id="4794"></path></svg>