<?xml version="1.0" encoding="UTF-8"?>
<svg width="24px" height="24px" viewBox="0 0 24 24" version="1.1" xmlns="http://www.w3.org/2000/svg" xmlns:xlink="http://www.w3.org/1999/xlink">
    <!-- Generator: Sketch 50.2 (55047) - http://www.bohemiancoding.com/sketch -->
    <title>mycoin_ic_bcoin</title>
    <desc>Created with Sketch.</desc>
    <defs></defs>
    <g id="积分" stroke="none" stroke-width="1" fill="none" fill-rule="evenodd">
        <g transform="translate(-12.000000, -101.000000)" id="mycoin_ic_bcoin">
            <g transform="translate(12.000000, 101.000000)">
                <circle id="Oval-9" fill="#FFE993" cx="12" cy="12" r="12"></circle>
                <circle id="Oval-9" fill="#FFB829" cx="12" cy="12" r="10"></circle>
                <path d="M17.9727139,10.1632852 C17.9069312,9.96911725 17.7315106,9.82672739 17.5206686,9.7976022 L14.0527394,9.3138003 L12.5009422,6.29934231 C12.406485,6.1165008 12.2125104,6 11.9999816,6 C11.7874529,6 11.5934783,6.1165008 11.499021,6.29934231 L9.94722391,9.3138003 L6.47929465,9.7976022 C6.26845265,9.8267274 6.09303211,9.96749919 6.0272494,10.1632852 C5.9614667,10.3574532 6.01712899,10.571038 6.16893522,10.7134279 L8.67879842,13.0596244 L8.08844079,16.3734247 C8.05301933,16.5740649 8.13904287,16.7779413 8.31108994,16.8976782 C8.48313702,17.0174151 8.71084637,17.0335958 8.89976082,16.9381299 L12.0016684,15.3734595 L15.1035759,16.9381299 C15.1845392,16.9785815 15.2739362,16.9996164 15.3633332,16.9996164 C15.479718,16.9996164 15.5944161,16.965637 15.6922468,16.8976782 C15.8642938,16.7779413 15.9503174,16.5740649 15.9148959,16.3734247 L15.3228516,13.0596244 L17.8327148,10.7134279 C17.9828343,10.571038 18.0384966,10.3574532 17.9727139,10.1632852 Z" id="Shape" fill="#FFEDAE" fill-rule="nonzero"></path>
            </g>
        </g>
    </g>
</svg>