<?xml version="1.0" encoding="UTF-8"?>
<svg width="128px" height="128px" viewBox="0 0 128 128" version="1.1" xmlns="http://www.w3.org/2000/svg" xmlns:xlink="http://www.w3.org/1999/xlink">
    <!-- Generator: Sketch 53.2 (72643) - https://sketchapp.com -->
    <title>empty</title>
    <desc>Created with Sketch.</desc>
    <defs>
        <filter x="-10.7%" y="-75.0%" width="121.4%" height="250.0%" filterUnits="objectBoundingBox" id="filter-1">
            <feGaussianBlur stdDeviation="4" in="SourceGraphic"></feGaussianBlur>
        </filter>
        <path d="M72.6086436,16 L20.5430697,16.0000161 C19.4385091,16.0000161 18.5430858,16.8954394 18.5430858,18 C18.5430858,18.0020885 18.5430891,18.0041771 18.5430956,18.0062656 C18.6302542,45.8273235 18.4231191,63.0325676 17.9216901,69.6219977 C17.545551,74.501211 16.0626187,80.9791325 13.4728932,89.0557622 L13.4729391,89.0557769 C13.3043169,89.5816625 13.5939361,90.1446722 14.1198216,90.3132945 C14.2185048,90.3449367 14.3215071,90.3610463 14.4251391,90.3610463 L98.0492958,90.3610463 C98.0492958,90.3610463 93.4127163,75.9240714 92.7263581,68.6419788 C92.3940429,65.0585126 92.2458884,54.0695892 92.2818948,35.6752085 L92.2818933,35.6752085 C92.2824138,35.4093146 92.1770182,35.1541611 91.9890025,34.9661453 L73.3157504,16.2928932 C73.128214,16.1053568 72.8738601,16 72.6086436,16 Z" id="path-2"></path>
        <filter x="-3.0%" y="-3.4%" width="106.3%" height="106.7%" filterUnits="objectBoundingBox" id="filter-3">
            <feOffset dx="0" dy="3" in="SourceAlpha" result="shadowOffsetInner1"></feOffset>
            <feComposite in="shadowOffsetInner1" in2="SourceAlpha" operator="arithmetic" k2="-1" k3="1" result="shadowInnerInner1"></feComposite>
            <feColorMatrix values="0 0 0 0 1   0 0 0 0 1   0 0 0 0 1  0 0 0 0.5 0" type="matrix" in="shadowInnerInner1"></feColorMatrix>
        </filter>
    </defs>
    <g id="其他页面" stroke="none" stroke-width="1" fill="none" fill-rule="evenodd">
        <g id="H5-任务记录空页面" transform="translate(-124.000000, -108.000000)">
            <g id="Group" transform="translate(88.000000, 95.000000)">
                <g id="empty">
                    <ellipse id="Oval" fill="#D7E3EE" fill-rule="evenodd" filter="url(#filter-1)" cx="101" cy="124" rx="56" ry="8"></ellipse>
                    <g id="Group-3" stroke-width="1" fill-rule="evenodd" transform="translate(6.000000, 5.000000)">
                        <g id="Group-2">
                            <rect id="Rectangle" x="40.2816901" y="20.1408451" width="109.859155" height="109.859155" rx="54.9295775"></rect>
                            <g id="Group" transform="translate(38.450704, 3.225352)">
                                <path d="M110.528176,86.2308987 L97.0521082,67.2210522 C96.1146055,65.8985757 94.5941412,65.1126761 92.9730751,65.1126761 L17.3958964,65.1126761 C15.686507,65.1126761 14.0955795,65.9859437 13.1777589,67.4280315 L0.930488735,86.6710518 C0.633951088,87.1369744 0.771264723,87.7550705 1.23718732,88.0516082 C1.39871011,88.1544098 1.58634961,88.2086812 1.77781051,88.2079739 L109.716063,87.8092167 C110.268344,87.8071764 110.714403,87.3578102 110.712362,86.8055292 C110.711601,86.5995895 110.647277,86.3989069 110.528176,86.2308987 Z" id="Fill-1" stroke="#A9D4FF" stroke-width="2" fill="#F3F3F3"></path>
                                <circle id="Oval-2" fill="#A9D4FF" cx="53.5" cy="22.5" r="1.5"></circle>
                                <circle id="Oval-2-Copy" fill="#A9D4FF" cx="44.5" cy="82.5" r="1.5"></circle>
                                <g id="Fill-9" stroke-linecap="round" stroke-dasharray="3,5">
                                    <use fill="#FCFCFC" fill-rule="evenodd" xlink:href="#path-2"></use>
                                    <use fill="black" fill-opacity="1" filter="url(#filter-3)" xlink:href="#path-2"></use>
                                    <use stroke="#A9D4FF" stroke-width="2" xlink:href="#path-2"></use>
                                </g>
                                <path d="M28.8974689,40.28051 C28.4055869,40.28051 28,39.557439 28,38.6805231 C28,37.8036073 28.4055869,37.0805363 28.8974689,37.0805363 L62.2500721,37.0805363 C62.7419541,37.0805363 63.147541,37.8036073 63.147541,38.6805231 C63.147541,39.557439 62.7419541,40.28051 62.2500721,40.28051 L28.8974689,40.28051 Z M29.2165477,52.28051 C28.549786,52.28051 28,51.557439 28,50.6805231 C28,49.8036073 28.549786,49.0805363 29.2165477,49.0805363 L81.2713204,49.0805363 C81.9380821,49.0805363 82.487868,49.8036073 82.487868,50.6805231 C82.487868,51.557439 81.9380821,52.28051 81.2713204,52.28051 L29.2165477,52.28051 Z M29.2165477,63.28051 C28.549786,63.28051 28,62.557439 28,61.6805231 C28,60.8036073 28.549786,60.0805363 29.2165477,60.0805363 L81.2713204,60.0805363 C81.9380821,60.0805363 82.487868,60.8036073 82.487868,61.6805231 C82.487868,62.557439 81.9380821,63.28051 81.2713204,63.28051 L29.2165477,63.28051 Z M29.2165477,74.28051 C28.549786,74.28051 28,73.557439 28,72.6805231 C28,71.8036073 28.549786,71.0805363 29.2165477,71.0805363 L81.2713204,71.0805363 C81.9380821,71.0805363 82.487868,71.8036073 82.487868,72.6805231 C82.487868,73.557439 81.9380821,74.28051 81.2713204,74.28051 L29.2165477,74.28051 Z" id="Combined-Shape" fill="#E6F3FF"></path>
                                <path d="M72.9928245,17.2042563 L72.9034981,32.1958687 C72.893626,33.8526935 74.228745,35.2038183 75.8855698,35.2136904 C75.8915281,35.2137259 75.8974865,35.2137437 75.9034448,35.2137437 L90.8494879,35.2137437 C91.1256303,35.2137437 91.3494879,34.989886 91.3494879,34.7137437 C91.3494879,34.5818799 91.2973977,34.4553547 91.2045576,34.361713 L73.8478853,16.8552049 C73.6534641,16.6591053 73.3368846,16.6577447 73.140785,16.8521659 C73.046819,16.9453276 72.9936129,17.0719381 72.9928245,17.2042563 Z" id="Stroke-15" stroke="#A9D4FF" stroke-width="2" fill-opacity="0.2" fill="#FFF7EE" stroke-dasharray="3,5"></path>
                                <g id="Group-6" transform="translate(28.549296, 54.774648)">
                                    <path d="M26.1324063,43 C16.4019215,43 8.14344022,40.5407261 4.43592769,33.9812341 C2.86601572,35.7421228 1.34283552,36.4222911 0.5,36 C-0.971932681,35.2625084 1.5,29 2,27.5 C2.23701438,26.7889569 2.34474926,25.5149567 2.34474926,25.1442974 C2.34474926,11.8560549 13.0947191,0 26.355479,0 C39.6162388,0 50.3662087,11.8560549 50.3662087,25.1442974 C50.3662087,25.4139497 50.5,26 51,27 C51.5,28 54.7425159,34.0193242 53.4893857,34.984801 C52.6351685,35.6429345 51.0414849,34.9897753 48.708335,33.0253233 C45.1607287,40.3032128 36.3219414,43 26.1324063,43 Z" id="Combined-Shape" stroke="#A9D4FF" stroke-width="1.5" fill="#FAFAFA"></path>
                                    <circle id="Oval" fill="#A9D4FF" cx="14.5" cy="15.5" r="5.5"></circle>
                                    <circle id="Oval-Copy" fill="#A9D4FF" cx="38.5" cy="15.5" r="5.5"></circle>
                                    <circle id="Oval-Copy-2" fill="#F6F6F6" cx="36.5" cy="13.5" r="1.5"></circle>
                                    <circle id="Oval-Copy-3" fill="#F6F6F6" cx="12.5" cy="13.5" r="1.5"></circle>
                                    <g id="Group-7" transform="translate(14.000000, 5.000000)" stroke="#A9D4FF" stroke-linecap="round" stroke-width="1.5">
                                        <path d="M19.0405075,3.07745178 C20.8400886,2.64172466 22.6396697,2.20599754 24.4392509,1.77027042" id="Path-12" transform="translate(21.739879, 2.423861) rotate(20.000000) translate(-21.739879, -2.423861) "></path>
                                        <path d="M0.0607491469,3.1910045 C1.86033026,2.75527738 3.65991137,2.31955026 5.45949248,1.88382314" id="Path-12" transform="translate(2.760121, 2.537414) scale(-1, 1) rotate(20.000000) translate(-2.760121, -2.537414) "></path>
                                    </g>
                                    <path d="M24.9521694,21.1173792 C25.468113,21.0391264 25.9840565,21 26.5,21 C27.0159435,21 27.531887,21.0391264 28.0478306,21.1173792 L28.0478304,21.1173801 C28.5953406,21.2004206 29,21.6710824 29,22.224854 L29,22.224854 C29,22.640127 28.6633548,22.9767722 28.2480818,22.9767722 C28.2083755,22.9767722 28.1687316,22.9736271 28.129522,22.9673663 C27.5863468,22.8806464 27.0431734,22.8372811 26.5,22.8372811 C25.9568266,22.8372811 25.4136532,22.8806464 24.8704797,22.967377 L24.870478,22.9673663 C24.4603998,23.0328451 24.0748847,22.7534921 24.0094059,22.3434139 C24.0031451,22.3042043 24,22.2645604 24,22.224854 L24,22.224854 C24,21.6710824 24.4046594,21.2004206 24.9521696,21.1173801 Z" id="Combined-Shape" fill="#A9D4FF"></path>
                                    <ellipse id="Oval-7" fill="#FAC4C4" cx="8" cy="23" rx="2" ry="1"></ellipse>
                                    <ellipse id="Oval-7-Copy" fill="#FAC4C4" cx="45" cy="23" rx="2" ry="1"></ellipse>
                                </g>
                                <path d="M78.5862336,86.4929577 L1.35463895,86.4929577 C0.8023542,86.4929577 0.354638949,86.940673 0.354638949,87.4929577 C0.354638949,87.5928033 0.36959218,87.6920858 0.399001106,87.787502 L7.2932307,110.155573 C8.59798299,114.390905 12.503876,117.278632 16.9283245,117.278632 L95.0043665,117.278632 C99.4789977,117.278632 103.401618,114.340684 104.681279,110.055131 L111.307867,87.7780735 C111.465332,87.2487123 111.163851,86.6919297 110.63449,86.5344646 C110.541953,86.5069385 110.445918,86.4929577 110.349374,86.4929577 Z" id="Fill-17" stroke="#A9D4FF" stroke-width="2" fill="#F6F6F6"></path>
                                <g id="Group-7-Copy" transform="translate(79.500000, 87.500000) scale(-1, 1) translate(-79.500000, -87.500000) translate(75.000000, 83.000000)">
                                    <path d="M2.04929577,3.27464789 C0.754285514,5.99333994 0.388088331,7.49333994 0.950704225,7.77464789 C1.95070423,8.27464789 2.74789499,8.42209671 4.25,7 C5.75210501,5.57790329 6.67141325,4.15253041 7.54929577,3.27464789 C6.24882629,3.27464789 4.41549296,3.27464789 2.04929577,3.27464789 Z" id="Path-2" stroke="#A9D4FF" stroke-width="1.5" fill="#F6F6F6"></path>
                                    <path d="M4.45070423,0.774647887 C1.88808833,4.82667327 0.888088331,6.99333994 1.45070423,7.27464789 C2.45070423,7.77464789 3.9271783,6.77464789 5.54929577,4.77464789 C7.17141325,2.77464789 7.17141325,1.65253041 8.04929577,0.774647887 C6.74882629,0.774647887 5.54929577,0.774647887 4.45070423,0.774647887 Z" id="Path-2" fill="#FAFAFA"></path>
                                </g>
                                <g id="Group-7-Copy-2" transform="translate(27.000000, 82.000000)">
                                    <path d="M2.04929577,4.27464789 C0.754285514,6.99333994 0.388088331,8.49333994 0.950704225,8.77464789 C1.95070423,9.27464789 2.74789499,9.42209671 4.25,8 C5.75210501,6.57790329 6.67141325,5.15253041 7.54929577,4.27464789 C6.24882629,4.27464789 4.41549296,4.27464789 2.04929577,4.27464789 Z" id="Path-2" stroke="#A9D4FF" stroke-width="1.5" fill="#F6F6F6"></path>
                                    <path d="M4.65595287,0.774647887 C1.95650455,5.49333994 0.888088331,7.99333994 1.45070423,8.27464789 C2.45070423,8.77464789 3.9271783,7.77464789 5.54929577,5.77464789 C7.17141325,3.77464789 7.17141325,2.65253041 8.04929577,1.77464789 C6.74882629,1.77464789 5.61771199,1.44131455 4.65595287,0.774647887 Z" id="Path-2" fill="#FAFAFA"></path>
                                </g>
                            </g>
                        </g>
                    </g>
                    <text id="SORRY" font-family="DIN-Black, DIN" font-size="13" font-weight="700" fill="#A9D4FF">
                        <tspan x="81.077" y="115">SORRY</tspan>
                    </text>
                </g>
            </g>
        </g>
    </g>
</svg>