<?xml version="1.0" encoding="UTF-8"?>
<svg width="24px" height="24px" viewBox="0 0 24 24" version="1.1" xmlns="http://www.w3.org/2000/svg" xmlns:xlink="http://www.w3.org/1999/xlink">
    <!-- Generator: Sketch 53.2 (72643) - https://sketchapp.com -->
    <title>vip_ic_time</title>
    <desc>Created with Sketch.</desc>
    <g id="预约专家" stroke="none" stroke-width="1" fill="none" fill-rule="evenodd">
        <g id="H5-专家预约" transform="translate(-12.000000, -309.000000)" fill="#BB9B6D">
            <g id="vip_ic_time" transform="translate(12.000000, 309.000000)">
                <path d="M12,0 C18.627417,-1.21743675e-15 24,5.372583 24,12 C24,18.627417 18.627417,24 12,24 C5.372583,24 8.11624501e-16,18.627417 0,12 C-8.11624501e-16,5.372583 5.372583,1.21743675e-15 12,0 Z M12,19 C15.8659932,19 19,15.8659932 19,12 C19,8.13400675 15.8659932,5 12,5 C8.13400675,5 5,8.13400675 5,12 C5,15.8659932 8.13400675,19 12,19 Z M13,11 L15,11 C15.5522847,11 16,11.4477153 16,12 C16,12.5522847 15.5522847,13 15,13 L12,13 C11.4477153,13 11,12.5522847 11,12 L11,8 C11,7.44771525 11.4477153,7 12,7 C12.5522847,7 13,7.44771525 13,8 L13,11 Z" id="合并形状"></path>
            </g>
        </g>
    </g>
</svg>